#tb 0: 1/25
0,          0,          0,        1,   304128, 0x4180ae79
0,          1,          1,        1,   304128, 0xe792dbdf
0,          2,          2,        1,   304128, 0x33114032
0,          3,          3,        1,   304128, 0xec12bf57
0,          4,          4,        1,   304128, 0x86da3c0e
0,          5,          5,        1,   304128, 0x6976e5e3
0,          6,          6,        1,   304128, 0x8434fea2
0,          7,          7,        1,   304128, 0x65bd0a72
0,          8,          8,        1,   304128, 0x65c20efe
0,          9,          9,        1,   304128, 0xc6a7b032
0,         10,         10,        1,   304128, 0xb78c312a
0,         11,         11,        1,   304128, 0x7912c07e
0,         12,         12,        1,   304128, 0xbd2f9195
0,         13,         13,        1,   304128, 0x1f040615
0,         14,         14,        1,   304128, 0x3b4a9e7d
0,         15,         15,        1,   304128, 0x7502cd0a
0,         16,         16,        1,   304128, 0x4172427f
0,         17,         17,        1,   304128, 0x81c1af1e
0,         18,         18,        1,   304128, 0xc01f62f3
0,         19,         19,        1,   304128, 0x0cbfc2eb
0,         20,         20,        1,   304128, 0xed9f1040
0,         21,         21,        1,   304128, 0xb58e35ad
0,         22,         22,        1,   304128, 0x6ed481aa
0,         23,         23,        1,   304128, 0x7f7f0bbc
0,         24,         24,        1,   304128, 0xc4b8acac
0,         25,         25,        1,   304128, 0x35110b72
0,         26,         26,        1,   304128, 0xb874a4cd
0,         27,         27,        1,   304128, 0x75783bb0
0,         28,         28,        1,   304128, 0x17457ac2
0,         29,         29,        1,   304128, 0xd453b298
0,         30,         30,        1,   304128, 0xbaca5116
0,         31,         31,        1,   304128, 0x04aeae05
0,         32,         32,        1,   304128, 0xae36fee3
0,         33,         33,        1,   304128, 0x18366c31
0,         34,         34,        1,   304128, 0x6c5e6a69
0,         35,         35,        1,   304128, 0x2509dbd5
0,         36,         36,        1,   304128, 0x1ef717a1
0,         37,         37,        1,   304128, 0x8b4ffe28
0,         38,         38,        1,   304128, 0xa0c483fb
0,         39,         39,        1,   304128, 0x1e4638a0
0,         40,         40,        1,   304128, 0x924e7ccb
0,         41,         41,        1,   304128, 0xc1097eb3
0,         42,         42,        1,   304128, 0x240a0cf5
0,         43,         43,        1,   304128, 0x5ecaafa1
0,         44,         44,        1,   304128, 0x146a0b2e
0,         45,         45,        1,   304128, 0x7f3c8cbb
0,         46,         46,        1,   304128, 0xce6cbaff
0,         47,         47,        1,   304128, 0xda3f1de4
0,         48,         48,        1,   304128, 0xd747b5e7
0,         49,         49,        1,   304128, 0xf905d3cb
